<?xml version="1.0" encoding="utf-8"?>
<!-- Uploaded to: SVG Repo, www.svgrepo.com, Generator: SVG Repo Mixer Tools -->
<svg fill="#8D8D8F" width="70px" height="70px" viewBox="0 0 32 32" version="1.1" xmlns="http://www.w3.org/2000/svg">
<title>ebay</title>
<path d="M6.981 15.595c0-0.004 0-0.008 0-0.013 0-1.067-0.865-1.932-1.932-1.932-0.079 0-0.157 0.005-0.233 0.014l0.009-0.001c-0.061-0.006-0.131-0.010-0.202-0.010-1.098 0-1.997 0.855-2.066 1.936l-0 0.006zM12.417 18.737c0.012 0 0.026 0 0.041 0 1.278 0 2.313-1.036 2.313-2.313 0-0.074-0.004-0.148-0.010-0.221l0.001 0.009c0.003-0.047 0.005-0.101 0.005-0.155 0-1.308-1.061-2.369-2.369-2.369s-2.369 1.061-2.369 2.369c0 0.055 0.002 0.109 0.005 0.163l-0-0.007c-0.006 0.064-0.010 0.138-0.010 0.212 0 1.277 1.035 2.312 2.312 2.312 0.014 0 0.028-0 0.043-0l-0.002 0h0.040zM19.99 16.394c-1.368 0.042-2.212 0.291-2.212 1.187 0 0.581 0.45 1.212 1.631 1.212 0.087 0.012 0.187 0.020 0.289 0.020 1.179 0 2.134-0.956 2.134-2.134 0-0.053-0.002-0.107-0.006-0.159l0 0.007v-0.162c-0.562 0-1.237 0.008-1.854 0.027h0.015zM8.572 16.165v-6.148h1.5v3.781c0.626-0.7 1.532-1.139 2.541-1.139 0.074 0 0.148 0.002 0.221 0.007l-0.010-0.001c0.034-0.001 0.073-0.002 0.113-0.002 1.891 0 3.424 1.533 3.424 3.424 0 0.051-0.001 0.102-0.003 0.152l0-0.007c0 0.018 0 0.039 0 0.060 0 0.274-0.027 0.542-0.080 0.8l0.004-0.026c0.3-1.191 1.592-1.631 3.619-1.68 0.637-0.023 1.368-0.023 1.949-0.023v-0.169c0-1.106-0.695-1.555-1.912-1.555-0.9 0-1.556 0.375-1.631 1.012h-1.593c0.17-1.612 1.874-2.024 3.357-2.024 0.126-0.017 0.272-0.027 0.421-0.027 1.059 0 2 0.508 2.591 1.294l0.006 0.008-0.545-1.050h1.762l2.568 5.155 2.568-5.156h1.553l-4.649 9.129h-1.682l1.337-2.549-2.912-5.473c0.158 0.319 0.251 0.694 0.251 1.091 0 0.025-0 0.050-0.001 0.074l0-0.004v3.074c0 0.432 0.012 0.862 0.050 1.256h-1.392c-0.036-0.287-0.057-0.619-0.057-0.955v-0.001c-0.62 0.744-1.547 1.215-2.584 1.215-0.111 0-0.221-0.005-0.329-0.016l0.014 0.001c-1.849 0-2.839-0.975-2.839-2.118 0-0.179 0.017-0.354 0.049-0.524l-0.003 0.017c-0.369 1.508-1.708 2.61-3.305 2.61-0.054 0-0.107-0.001-0.16-0.004l0.008 0c-0.040 0.002-0.087 0.003-0.134 0.003-1.037 0-1.969-0.448-2.613-1.162l-0.003-0.003c-0.001 0.325-0.019 0.643-0.054 0.957l0.004-0.040h-1.475c0.025-0.487 0.050-1.068 0.050-1.556v-1.312h-6.036c0.003 1.204 0.979 2.178 2.183 2.178 0.047 0 0.093-0.001 0.139-0.004l-0.006 0c0.058 0.006 0.126 0.010 0.194 0.010 0.79 0 1.468-0.478 1.761-1.16l0.005-0.012h1.55c-0.3 1.612-2.012 2.156-3.486 2.156-2.678 0.026-3.865-1.457-3.865-3.444-0.007-0.082-0.011-0.178-0.011-0.275 0-1.878 1.522-3.4 3.4-3.4 0.178 0 0.353 0.014 0.524 0.040l-0.019-0.002c0.116-0.014 0.249-0.023 0.385-0.023 1.821 0 3.297 1.476 3.297 3.297 0 0.082-0.003 0.163-0.009 0.243l0.001-0.011v0.005z"></path>
</svg>